<?xml version="1.0" encoding="utf-8"?>
<!-- Generator: Adobe Adobe Illustrator 24.2.0, SVG Export Plug-In . SVG Version: 6.00 Build 0)  -->
<svg version="1.1" xmlns="http://www.w3.org/2000/svg" xmlns:xlink="http://www.w3.org/1999/xlink" x="0px" y="0px"
	 viewBox="0 0 566.02 145.46" style="enable-background:new 0 0 566.02 145.46;" xml:space="preserve">
<style type="text/css">
	.st0{fill:#FFC4E7;}
	.st1{fill:#8462A2;}
</style>
<g id="Layer_1">
</g>
<g id="Layer_2">
	<g>
		<path d="M0,116.53c0-15.73,12.32-28.27,30.25-28.27c18.15,0,31.24,11,31.24,28.27c0,16.06-10.23,28.93-31.13,28.93
			C14.52,145.46,0,134.24,0,116.53z M47.19,135.89c0-9.24-18.48-43.67-28.16-43.67c-2.75,0-4.4,1.98-4.4,5.39
			c0,10.78,19.03,43.89,28.05,43.89C45.65,141.5,47.19,139.63,47.19,135.89z"/>
		<path d="M96.8,92.22h-1.21c-8.36,0-17.71,7.48-26.07,23.98h-0.11V90.46h50.82L88.44,142.6h1.65c10.01,0,21.67-10.67,27.39-24.31
			h0.11v26.07h-52.8L96.8,92.22z"/>
		<path d="M189.09,114.33c0,19.91-11.55,31.13-33.55,31.13c-7.92,0-19.14-1.65-27.17-4.18V77.15l-6.27-5.39l28.27-9.9v36.19
			c5.83-5.94,12.65-9.79,19.14-9.79C180.62,88.26,189.09,97.28,189.09,114.33z M165.55,120.6c0-14.74-3.19-22.11-10.56-22.11
			c-1.65,0-3.08,0.44-4.62,1.1v42.02c1.54,1.1,3.52,1.65,5.39,1.65C161.48,143.26,165.55,136.44,165.55,120.6z"/>
		<path d="M250.36,142.6v1.76h-27.5v-6.27c-5.17,4.4-11,7.37-17.05,7.37c-7.15,0-11.99-4.07-11.99-11
			c0-10.12,10.78-16.83,29.04-18.81c0-12.1-4.84-18.15-13.2-18.15c-4.95,0-8.36,1.32-12.1,4.18l-0.55-0.55
			c7.48-8.36,15.62-12.87,26.62-12.87c13.86,0,21.23,7.92,21.23,23.87v30.47H250.36z M222.86,136.55v-19.47
			c-6.6,1.87-9.13,6.05-9.13,11.88c0,5.17,2.2,7.92,6.6,7.92C220.99,136.88,221.87,136.77,222.86,136.55z"/>
		<path d="M325.71,142.6v1.76h-27.39l-16.39-25.63v23.87h3.3v1.76h-30.8v-1.76h5.5V77.15l-6.27-5.39l28.27-9.9v55.11l8.36-6.05
			c5.39-3.96,8.03-6.6,8.03-11.55c0-2.86-1.21-6.05-4.73-7.81v-0.55h22c0.66,0.88,0.88,1.65,0.88,2.75c0,4.4-5.17,7.59-12.43,10.78
			l-6.71,2.97l23.87,35.09H325.71z"/>
		<path d="M328.13,142.6h5.5v-40.15l-6.27-5.39l28.27-9.9v55.44h5.5v1.76h-33V142.6z M332.42,72.97c0-7.26,4.4-12.21,12.21-12.21
			c7.81,0,12.21,4.95,12.21,12.21c0,7.37-4.4,12.32-12.21,12.32C336.82,85.29,332.42,80.34,332.42,72.97z"/>
	</g>
	<g>
		<path d="M566.02,29.48c0,15.73-12.32,28.27-30.25,28.27c-18.15,0-31.24-11-31.24-28.27c0-16.06,10.23-28.93,31.13-28.93
			C551.5,0.55,566.02,11.77,566.02,29.48z M518.83,10.12c0,9.24,18.48,43.67,28.16,43.67c2.75,0,4.4-1.98,4.4-5.39
			c0-10.78-19.03-43.89-28.05-43.89C520.37,4.51,518.83,6.38,518.83,10.12z"/>
		<path d="M499.14,3.41h-5.5v65.45l6.27,5.39l-28.27,9.9V3.41h-5.5V1.65h33V3.41z"/>
		<path d="M462.07,3.41h-5.5v40.15l6.27,5.39l-28.27,9.9V3.41h-5.5V1.65h33V3.41z M457.78,73.04c0,7.26-4.4,12.21-12.21,12.21
			c-7.81,0-12.21-4.95-12.21-12.21c0-7.37,4.4-12.32,12.21-12.32C453.38,60.72,457.78,65.67,457.78,73.04z"/>
		<path d="M363.29,55.55l7.37-5.39L395.19,0h2.86l23.32,50.16l7.37,5.39h-38.39l7.37-5.39l-10.78-29.59l-10.67,29.59l7.7,5.39
			H363.29z"/>
		<path d="M361.2,3.41h-5.5v40.15l6.27,5.39l-28.27,9.9V3.41h-5.5V1.65h33V3.41z"/>
		<path d="M268.03,3.41V1.65h27.5v6.27c5.17-4.4,11-7.37,17.05-7.37c7.15,0,11.99,4.07,11.99,11c0,10.12-10.78,16.83-29.04,18.81
			c0,12.1,4.84,18.15,13.2,18.15c4.95,0,8.36-1.32,12.1-4.18l0.55,0.55c-7.48,8.36-15.62,12.87-26.62,12.87
			c-13.86,0-21.23-7.92-21.23-23.87V3.41H268.03z M295.53,9.46v19.47c6.6-1.87,9.13-6.05,9.13-11.88c0-5.17-2.2-7.92-6.6-7.92
			C297.4,9.13,296.52,9.24,295.53,9.46z"/>
	</g>
</g>
<g id="Layer_3">
</g>
</svg>
